<svg width="22" height="23" viewBox="0 0 22 23" fill="none" xmlns="http://www.w3.org/2000/svg">
<path d="M2.11963 9.63892C1.2912 9.63892 0.619629 10.3105 0.619629 11.1389C0.619629 11.9673 1.2912 12.6389 2.11963 12.6389V9.63892ZM20.6634 12.1996C21.2492 11.6138 21.2492 10.664 20.6634 10.0783L11.1175 0.532314C10.5317 -0.0534721 9.58196 -0.0534721 8.99618 0.532314C8.41039 1.1181 8.41039 2.06785 8.99618 2.65363L17.4815 11.1389L8.99618 19.6242C8.41039 20.21 8.41039 21.1597 8.99618 21.7455C9.58196 22.3313 10.5317 22.3313 11.1175 21.7455L20.6634 12.1996ZM2.11963 12.6389H19.6028V9.63892H2.11963V12.6389Z" fill="white"/>
</svg>
