<svg width="16" height="108" viewBox="0 0 16 108" fill="none" xmlns="http://www.w3.org/2000/svg">
<path d="M8.99902 1.49988C8.99902 0.947593 8.55131 0.499878 7.99902 0.499878C7.44674 0.499878 6.99902 0.947593 6.99902 1.49988L8.99902 1.49988ZM7.29192 107.207C7.68245 107.598 8.31561 107.598 8.70614 107.207L15.0701 100.843C15.4606 100.453 15.4606 99.8193 15.0701 99.4288C14.6796 99.0383 14.0464 99.0383 13.6559 99.4288L7.99903 105.086L2.34218 99.4288C1.95165 99.0383 1.31849 99.0383 0.927963 99.4288C0.537438 99.8193 0.537439 100.453 0.927963 100.843L7.29192 107.207ZM6.99902 1.49988L6.99903 106.5L8.99903 106.5L8.99902 1.49988L6.99902 1.49988Z" fill="white"/>
</svg>
