<svg width="76" height="76" viewBox="0 0 76 76" fill="none" xmlns="http://www.w3.org/2000/svg">
<path d="M72.4498 50.0001V50.0001ZM72.4498 50.0001L71.2038 50.2121L70.1396 50.4029L69.2309 50.5772L68.4566 50.7387L67.7992 50.8908L67.2446 51.036L66.7809 51.1766L66.3982 51.3147L66.0885 51.4519L65.8449 51.5898L65.6616 51.7298L65.5339 51.8731L65.4577 52.0209L65.4295 52.1744L65.4464 52.3345L65.5058 52.5023L65.6054 52.6788L65.7432 52.8648L65.9174 53.0612L66.1263 53.2689L66.3681 53.4887L66.6411 53.7212L66.9436 53.9672L67.2737 54.2271L67.6294 54.5015L68.0084 54.7906L68.4083 55.0946L68.8264 55.4135L69.2597 55.7472L69.7048 56.0953L70.1581 56.4571L70.6158 56.8317L71.0736 57.2181L71.527 57.6148L71.9716 58.0201L72.4024 58.4322L72.8146 58.8488L73.2035 59.2676L73.5643 59.686L73.8926 60.1015L74.1843 60.5111L74.4357 60.9121L74.6437 61.3019L74.8056 61.6778L74.9196 62.0373L74.9845 62.3783L75 62.6989L74.9664 62.9975L74.8847 63.2729L74.7568 63.5244L74.5849 63.7515L74.3722 63.9543L74.122 64.1332L73.8381 64.289L73.5245 64.4227L73.1855 64.5358L72.8253 64.63L72.4482 64.7071L72.0585 64.7691L71.6601 64.8182L71.2569 64.8565L70.8524 64.8864L70.4499 64.9099L70.0523 64.9294L69.6623 64.947L69.2822 64.9646L68.9141 64.9844L68.5596 65.008L68.2202 65.0374L67.897 65.074L67.591 65.1196L67.3028 65.1753L67.033 65.2427L66.7817 65.3228L66.5492 65.4167L66.3354 65.5255L66.14 65.65L65.9628 65.7909L65.8033 65.949L65.6611 66.1247L65.5353 66.3186L65.4253 66.531L65.3302 66.762L65.2491 67.0118L65.1807 67.2802L65.1241 67.5669L65.0778 67.8715L65.0405 68.1933L65.0106 68.5315L64.9865 68.8848L64.9666 69.2519L64.9488 69.6311L64.9314 70.0204L64.9121 70.4175L64.8889 70.8197L64.8596 71.2242L64.8221 71.6276L64.7739 72.0265L64.713 72.4171L64.6372 72.7953L64.5444 73.1569L64.4329 73.4978L64.3009 73.8136L64.1469 74.1L63.9699 74.3531L63.769 74.5689L63.5438 74.7441L63.2943 74.8756L63.0208 74.961L62.724 74.9985L62.4051 74.987L62.0656 74.926L61.7075 74.8158L61.3328 74.6577L60.944 74.4534L60.5438 74.2053L60.1347 73.9167L59.7197 73.5911L59.3014 73.2327L58.8825 72.8459L58.4656 72.4354L58.0531 72.0059L57.6472 71.5623L57.2497 71.1093L56.8625 70.6517L56.4869 70.1939L56.124 69.7401L55.7748 69.2942L55.4399 68.8599L55.1198 68.4405L54.8146 68.039L54.5243 67.6582L54.2488 67.3006L53.9877 66.9684L53.7407 66.6636L53.5071 66.3882L53.2863 66.1439L53.0777 65.9323L52.8804 65.7553L52.6936 65.6145L52.5164 65.5118L52.3479 65.4491L52.1872 65.4288L52.0333 65.4533L51.885 65.5256L51.7414 65.649L51.6012 65.8277L51.4632 66.0663L51.326 66.3705L51.188 66.7471L51.0477 67.204L50.9029 67.751L50.7515 68.3996L50.5908 69.164L50.4177 70.0613L50.2284 71.1123L50.0182 72.3427L49.8044 71.2955L49.6121 70.2178L49.4367 69.2975L49.2743 68.5132L49.1216 67.8471L48.9759 67.2848L48.8349 66.8142L48.6967 66.4255L48.5595 66.1102L48.4217 65.8615L48.282 65.6737L48.139 65.5417L47.9915 65.4615L47.8386 65.4296L47.679 65.443L47.5118 65.4991L47.3361 65.5955L47.1509 65.7304L46.9553 65.9018L46.7485 66.1079L46.5297 66.3472L46.2982 66.6178L46.0534 66.918L45.7946 67.2459L45.5214 67.5997L45.2335 67.9769L44.9306 68.3753L44.6129 68.792L44.2803 69.2242L43.9334 69.6684L43.5727 70.1213L43.199 70.5787L42.8135 71.0367L42.4176 71.4906L42.0129 71.9361L41.6013 72.3681L41.1849 72.782L40.7662 73.1729L40.3476 73.5361L39.9319 73.8672L39.5217 74.162L39.1198 74.4167L38.7291 74.6282L38.352 74.7938L37.9911 74.9117L37.6485 74.9806L37.3262 75L37.0258 74.9702L36.7485 74.8923L36.4951 74.768L36.266 74.5996L36.0613 74.39L35.8806 74.1427L35.723 73.8613L35.5876 73.5499L35.4729 73.2127L35.3772 72.8541L35.2989 72.4782L35.2357 72.0894L35.1857 71.6915L35.1466 71.2886L35.1161 70.884L35.0921 70.4813L35.0724 70.0832L35.0548 69.6925L35.0372 69.3115L35.0177 68.9424L34.9944 68.5868L34.9656 68.2461L34.9296 67.9216L34.8848 67.6142L34.8299 67.3246L34.7635 67.0533L34.6844 66.8006L34.5916 66.5666L34.4841 66.3512L34.3609 66.1544L34.2213 65.9758L34.0646 65.8149L33.8903 65.6713L33.6978 65.5443L33.4869 65.433L33.2574 65.3368L33.0091 65.2546L32.7422 65.1853L32.4569 65.1277L32.1537 65.0807L31.8333 65.0427L31.4964 65.0123L31.1442 64.9878L30.7781 64.9676L30.3998 64.9497L30.0112 64.9323L29.6147 64.9133L29.2128 64.8905L28.8084 64.8618L28.4047 64.8249L28.0053 64.7777L27.6139 64.7179L27.2346 64.6433L26.8714 64.552L26.5287 64.442L26.2108 64.3117L25.9219 64.1595L25.666 63.9844L25.4471 63.7855L25.2686 63.5622L25.1335 63.3146L25.0443 63.043L25.0029 62.748L25.0105 62.4308L25.0676 62.0929L25.1739 61.7362L25.3282 61.3628L25.529 60.975L25.7737 60.5756L26.0592 60.1672L26.382 59.7525L26.7379 59.3343L27.1226 58.9154L27.5315 58.4983L27.9596 58.0853L28.4023 57.6788L28.8547 57.2806L29.3121 56.8925L29.77 56.5159L30.2243 56.152L30.671 55.8017L31.1064 55.4657L31.5271 55.1444L31.9301 54.838L32.3126 54.5465L32.6722 54.2698L33.0065 54.0076L33.3135 53.7595L33.5913 53.5249L33.8382 53.3031L34.0524 53.0935L34.2323 52.8953L34.376 52.7077L34.4818 52.5298L34.5478 52.3607L34.5716 52.1994L34.5507 52.045L34.4824 51.8963L34.3631 51.7524L34.189 51.612L33.9554 51.4738L33.6566 51.3366L33.2861 51.1988L32.8359 51.0586L32.2965 50.9143L31.6564 50.7635L30.9018 50.6037L30.0158 50.4317L28.9779 50.2438L27.7629 50.0355L28.6115 49.8203L29.7028 49.6264L30.6347 49.4498L31.4292 49.2865L32.1041 49.1331L32.6743 48.987L33.1518 48.8457L33.5467 48.7074L33.8676 48.5701L34.1213 48.4324L34.3138 48.2929L34.4501 48.1502L34.5343 48.0032L34.5699 47.8507L34.56 47.6917L34.5073 47.5252L34.4139 47.3502L34.2821 47.1657L34.1135 46.971L33.9101 46.7651L33.6734 46.5473L33.4053 46.3169L33.1073 46.0731L32.7815 45.8154L32.4297 45.5434L32.0543 45.2567L31.6575 44.955L31.2421 44.6385L30.8111 44.3071L30.3676 43.9613L29.9153 43.6016L29.4581 43.229L29 42.8444L28.5456 42.4492L28.0993 42.0452L27.666 41.634L27.2505 41.218L26.8576 40.7994L26.492 40.3807L26.1582 39.9646L25.8604 39.5539L25.6023 39.1513L25.3873 38.7595L25.2179 38.3813L25.0962 38.019L25.0234 37.6749L25 37.3509L25.0259 37.0487L25.1 36.7695L25.2207 36.5142L25.3857 36.2832L25.5921 36.0766L25.8366 35.8939L26.1154 35.7346L26.4246 35.5974L26.7599 35.4811L27.1169 35.384L27.4916 35.3044L27.8796 35.2401L28.2768 35.1891L28.6795 35.1492L29.0841 35.1181L29.4871 35.0937L29.8857 35.0737L30.2771 35.056L30.6589 35.0385L31.029 35.0192L31.3858 34.9963L31.7277 34.968L32.0535 34.9326L32.3623 34.8886L32.6533 34.8345L32.9261 34.7691L33.1803 34.6911L33.4158 34.5994L33.6327 34.4931L33.831 34.3712L34.011 34.2329L34.1733 34.0776L34.3182 33.9047L34.4466 33.7137L34.559 33.5043L34.6564 33.2762L34.7397 33.0294L34.81 32.764L34.8685 32.4802L34.9163 32.1784L34.955 31.8593L34.9859 31.5236L35.0108 31.1726L35.0313 30.8076L35.0493 30.4302L35.0666 30.0424L35.0855 29.6464L35.1079 29.2448L35.136 28.8405L35.1722 28.4366L35.2185 28.0368L35.2772 27.6446L35.3505 27.2642L35.4404 26.8996L35.5488 26.5551L35.6775 26.2351L35.8279 25.9437L36.0012 25.6851L36.1982 25.4631L36.4195 25.2812L36.6652 25.1425L36.9349 25.0496L37.2281 25.0044L37.5436 25.0081L37.8799 25.0612L38.2352 25.1636L38.6074 25.3142L38.994 25.5113L39.3926 25.7526L39.8005 26.035L40.2148 26.3549L40.6327 26.7084L41.0517 27.091L41.4691 27.4981L41.8824 27.9249L42.2895 28.3665L42.6885 28.8183L43.0774 29.2755L43.455 29.7335L43.8199 30.1883L44.1714 30.6357L44.5085 31.0721L44.831 31.4941L45.1386 31.8986L45.4313 32.2828L45.7091 32.6443L45.9725 32.9807L46.2217 33.29L46.4574 33.5702L46.6802 33.8196L46.8907 34.0365L47.0898 34.2191L47.2782 34.3658L47.4568 34.4747L47.6266 34.5439L47.7885 34.5711L47.9435 34.5539L48.0925 34.4895L48.2368 34.3744L48.3775 34.2049L48.5157 33.9762L48.653 33.6828L48.7907 33.3183L48.9306 32.8747L49.0745 32.3428L49.2247 31.7113L49.3837 30.9663L49.5546 30.0915L49.7411 29.0666L49.9475 27.8667L50.1639 28.5169L50.3593 29.622L50.5372 30.5657L50.7014 31.3704L50.8555 32.0543L51.0021 32.6323L51.1437 33.1167L51.2822 33.5179L51.4195 33.8444L51.5571 34.1033L51.6964 34.3005L51.8388 34.4411L51.9855 34.5292L52.1375 34.5686L52.2959 34.5623L52.4618 34.5128L52.6361 34.4227L52.8198 34.2938L53.0137 34.1281L53.2186 33.9274L53.4354 33.6933L53.6648 33.4276L53.9075 33.132L54.1641 32.8083L54.435 32.4585L54.7205 32.0849L55.021 31.6897L55.3364 31.2757L55.6666 30.8458L56.0113 30.4032L56.3698 29.9515L56.7415 29.4945L57.1252 29.0363L57.5196 28.5814L57.923 28.1343L58.3336 27.6998L58.7494 27.2827L59.1679 26.8878L59.5867 26.5199L60.0031 26.1834L60.4143 25.8826L60.8177 25.6213L61.2104 25.4027L61.5898 25.2296L61.9535 25.104L62.2991 25.0273L62.6247 25L62.9287 25.022L63.2097 25.0923L63.467 25.2094L63.6999 25.371L63.9085 25.5742L64.0931 25.8158L64.2543 26.092L64.3931 26.3989L64.511 26.7322L64.6096 27.0877L64.6906 27.4611L64.756 27.8482L64.808 28.2449L64.8487 28.6473L64.8804 29.0518L64.9052 29.4551L64.9255 29.8541L64.9433 30.2461L64.9608 30.6287L64.9798 30.9999L65.0024 31.3578L65.0302 31.7009L65.065 32.028L65.1083 32.3382L65.1615 32.6307L65.226 32.9049L65.3029 33.1606L65.3935 33.3976L65.4986 33.6159L65.6192 33.8157L65.7562 33.9972L65.9101 34.1609L66.0816 34.3072L66.2711 34.4368L66.4791 34.5505L66.7056 34.649L66.9509 34.7334L67.2149 34.8047L67.4972 34.8641L67.7976 34.9127L68.1154 34.952L68.4498 34.9835L68.7996 35.0088L69.1636 35.0296L69.54 35.0477L69.9271 35.0651L70.3226 35.0837L70.7238 35.1058L71.128 35.1334L71.5321 35.1688L71.9324 35.2142L72.3253 35.2719L72.7068 35.3439L73.0728 35.4324L73.4191 35.5393L73.7412 35.6663L74.035 35.8149L74.2964 35.9863L74.5215 36.1815L74.7067 36.4008L74.8489 36.6445L74.9455 36.9124L74.9946 37.2037L74.9948 37.5175L74.9456 37.8522L74.8472 38.206L74.7003 38.577L74.5068 38.9626L74.2689 39.3603L73.9897 39.7675L73.6726 40.1814L73.3217 40.5992L72.9412 41.0181L72.5359 41.4357L72.1105 41.8495L71.6698 42.2572L71.2187 42.6568L70.7618 43.0466L70.3036 43.4251L69.8484 43.7911L69.4003 44.1436L68.9629 44.482L68.5397 44.8056L68.1336 45.1144L67.7477 45.4083L67.3843 45.6873L67.0458 45.9518L66.7343 46.2021L66.4517 46.4389L66.1998 46.6626L65.9803 46.8741L65.7948 47.074L65.6452 47.2633L65.5332 47.4427L65.4608 47.6131L65.4301 47.7756L65.4437 47.9311L65.5043 48.0806L65.6151 48.2252L65.7802 48.3661L66.004 48.5045L66.292 48.6418L66.6506 48.7794L67.0876 48.919L67.612 49.0626L68.2352 49.2121L68.9705 49.3704L69.8343 49.5402L70.8465 49.7252L72.0314 49.9299L72.4498 50.0001Z" stroke="white"/>
<path fill-rule="evenodd" clip-rule="evenodd" d="M47.4498 25.0001L46.2038 25.2121L45.1396 25.4029L44.2309 25.5772L43.4566 25.7387L42.7992 25.8908L42.2446 26.036L41.7809 26.1766L41.3983 26.3147L41.0885 26.4519L40.8449 26.5898L40.6616 26.7298L40.5339 26.8731L40.4577 27.0209L40.4295 27.1744L40.4464 27.3345L40.5058 27.5023L40.6054 27.6788L40.7432 27.8648L40.9174 28.0612L41.1263 28.2689L41.3681 28.4887L41.6411 28.7212L41.9436 28.9672L42.2737 29.2271L42.6294 29.5015L43.0084 29.7906L43.4083 30.0946L43.8264 30.4135L44.2597 30.7472L44.7048 31.0953L45.1581 31.4571L45.6158 31.8317L46.0736 32.2181L46.527 32.6148L46.9716 33.0201L47.4024 33.4322L47.8146 33.8488L48.2035 34.2676L48.5643 34.686L48.8926 35.1015L49.1843 35.5111L49.4357 35.9121L49.6437 36.3019L49.8056 36.6778L49.9196 37.0373L49.9845 37.3783L50 37.6989L49.9664 37.9975L49.8847 38.2729L49.7568 38.5244L49.5849 38.7515L49.3722 38.9543L49.122 39.1332L48.8381 39.289L48.5245 39.4227L48.1855 39.5358L47.8253 39.63L47.4482 39.7071L47.0585 39.7691L46.6601 39.8182L46.2569 39.8565L45.8524 39.8864L45.4499 39.9099L45.0523 39.9294L44.6623 39.947L44.2822 39.9646L43.9141 39.9844L43.5596 40.008L43.2202 40.0374L42.897 40.074L42.591 40.1196L42.3028 40.1753L42.033 40.2427L41.7817 40.3228L41.5492 40.4167L41.3354 40.5255L41.14 40.65L40.9628 40.7909L40.8033 40.949L40.6611 41.1247L40.5353 41.3186L40.4253 41.531L40.3302 41.7621L40.2491 42.0118L40.1807 42.2802L40.1241 42.5669L40.0778 42.8715L40.0405 43.1933L40.0106 43.5315L39.9865 43.8848L39.9666 44.2519L39.9488 44.6311L39.9314 45.0204L39.9121 45.4175L39.8889 45.8197L39.8596 46.2242L39.8221 46.6276L39.7739 47.0265L39.713 47.4171L39.6372 47.7953L39.5444 48.1569L39.4329 48.4978L39.3009 48.8136L39.1469 49.1L38.9699 49.3531L38.769 49.5689L38.5438 49.7441L38.2943 49.8756L38.0208 49.961L37.724 49.9985L37.4051 49.987L37.0656 49.926L36.7075 49.8158L36.3328 49.6577L35.944 49.4534L35.5438 49.2053L35.1347 48.9167L34.7197 48.5911L34.3014 48.2327L33.8825 47.8459L33.4656 47.4354L33.0531 47.0059L32.6472 46.5623L32.2497 46.1093L31.8625 45.6517L31.4869 45.1939L31.124 44.7401L30.7748 44.2942L30.4399 43.8599L30.1198 43.4405L29.8146 43.039L29.5243 42.6582L29.2488 42.3006L28.9877 41.9684L28.7407 41.6636L28.5071 41.3882L28.2863 41.1439L28.0777 40.9323L27.8804 40.7553L27.6936 40.6145L27.5164 40.5118L27.3479 40.4491L27.1872 40.4288L27.0333 40.4533L26.885 40.5256L26.7414 40.649L26.6012 40.8277L26.4632 41.0663L26.326 41.3705L26.188 41.7471L26.0477 42.204L25.9029 42.751L25.7515 43.3996L25.5908 44.164L25.4177 45.0613L25.2284 46.1123L25.0182 47.3427L24.8044 46.2955L24.6121 45.2178L24.4367 44.2975L24.2743 43.5132L24.1216 42.8471L23.9759 42.2848L23.8349 41.8142L23.6967 41.4255L23.5595 41.1102L23.4217 40.8615L23.282 40.6737L23.139 40.5417L22.9915 40.4615L22.8386 40.4296L22.679 40.443L22.5118 40.4991L22.3361 40.5955L22.1509 40.7304L21.9553 40.9018L21.7485 41.1079L21.5297 41.3472L21.2982 41.6178L21.0534 41.918L20.7946 42.2459L20.5214 42.5997L20.2335 42.9769L19.9306 43.3753L19.6129 43.792L19.2803 44.2242L18.9334 44.6684L18.5727 45.1213L18.199 45.5787L17.8135 46.0367L17.4176 46.4906L17.0129 46.9361L16.6013 47.3681L16.1849 47.782L15.7662 48.1729L15.3476 48.5361L14.9319 48.8672L14.5217 49.162L14.1198 49.4167L13.7291 49.6282L13.352 49.7938L12.9911 49.9117L12.6485 49.9806L12.3262 50L12.0258 49.9702L11.7485 49.8923L11.4951 49.768L11.266 49.5996L11.0613 49.39L10.8806 49.1427L10.723 48.8613L10.5876 48.5499L10.4729 48.2127L10.3772 47.8541L10.2989 47.4782L10.2357 47.0894L10.1857 46.6915L10.1466 46.2886L10.1161 45.884L10.0921 45.4813L10.0724 45.0832L10.0548 44.6925L10.0372 44.3115L10.0177 43.9424L9.99442 43.5868L9.96559 43.2461L9.92956 42.9216L9.88479 42.6142L9.82988 42.3246L9.76349 42.0533L9.68444 41.8006L9.59164 41.5666L9.48408 41.3512L9.3609 41.1544L9.2213 40.9758L9.06462 40.8149L8.89028 40.6713L8.69783 40.5443L8.48693 40.433L8.25739 40.3368L8.00912 40.2546L7.74222 40.1853L7.45694 40.1277L7.15374 40.0807L6.83325 40.0427L6.49636 40.0123L6.14419 39.9878L5.77811 39.9676L5.39981 39.9497L5.01124 39.9323L4.6147 39.9133L4.21276 39.8905L3.80835 39.8618L3.40469 39.8249L3.00529 39.7777L2.61392 39.7179L2.23458 39.6433L1.87143 39.552L1.52875 39.442L1.21082 39.3117L0.921894 39.1595L0.666048 38.9844L0.447116 38.7854L0.268584 38.5622L0.133482 38.3146L0.0443054 38.043L0.00292863 37.748L0.0105444 37.4308L0.0676182 37.0929L0.173865 36.7362L0.328249 36.3628L0.529004 35.975L0.773681 35.5756L1.05921 35.1672L1.38197 34.7525L1.73792 34.3343L2.12263 33.9154L2.53147 33.4983L2.95963 33.0853L3.40229 32.6788L3.85465 32.2806L4.31206 31.8925L4.77003 31.5159L5.22433 31.152L5.671 30.8017L6.10637 30.4657L6.52708 30.1444L6.93008 29.838L7.31261 29.5465L7.67215 29.2698L8.00647 29.0076L8.3135 28.7595L8.59134 28.5249L8.83822 28.3031L9.05243 28.0935L9.23227 27.8953L9.37602 27.7077L9.48184 27.5298L9.54776 27.3607L9.57156 27.1994L9.55073 27.045L9.48239 26.8963L9.36314 26.7524L9.18904 26.612L8.95538 26.4738L8.65661 26.3366L8.28609 26.1988L7.83588 26.0586L7.29648 25.9143L6.6564 25.7635L5.90179 25.6037L5.01582 25.4317L3.97792 25.2438L2.76286 25.0355L3.61147 24.8203L4.7028 24.6264L5.63474 24.4498L6.4292 24.2865L7.10413 24.1331L7.67425 23.987L8.15175 23.8457L8.54672 23.7074L8.86757 23.5701L9.12132 23.4324L9.31385 23.2929L9.4501 23.1502L9.53427 23.0032L9.5699 22.8507L9.56003 22.6917L9.50727 22.5252L9.41393 22.3502L9.28206 22.1657L9.11353 21.971L8.91008 21.7651L8.67342 21.5473L8.40525 21.3169L8.10732 21.0731L7.78149 20.8154L7.42974 20.5434L7.05427 20.2567L6.65751 19.955L6.24212 19.6385L5.81107 19.3071L5.36762 18.9613L4.91534 18.6016L4.45809 18.229L4.00002 17.8444L3.54555 17.4492L3.09929 17.0452L2.66598 16.634L2.25047 16.218L1.85756 15.7994L1.49196 15.3807L1.15816 14.9646L0.860359 14.5539L0.602309 14.1513L0.387266 13.7595L0.217886 13.3813L0.0961586 13.019L0.0233547 12.6749L0 12.3509L0.0258666 12.0487L0.0999896 11.7695L0.220705 11.5142L0.385709 11.2832L0.592131 11.0766L0.83662 10.8939L1.11544 10.7346L1.42459 10.5974L1.75985 10.4811L2.11695 10.384L2.49159 10.3044L2.87957 10.2401L3.27683 10.1891L3.67953 10.1492L4.08406 10.1181L4.48712 10.0937L4.88568 10.0737L5.27705 10.056L5.65885 10.0385L6.02902 10.0192L6.38578 9.9963L6.72767 9.96797L7.05349 9.93257L7.36228 9.88856L7.65333 9.8345L7.92612 9.76908L8.18034 9.69108L8.41585 9.5994L8.63267 9.49306L8.83096 9.37115L9.01103 9.23289L9.17328 9.07759L9.31825 8.90468L9.44658 8.71369L9.55902 8.50427L9.65642 8.27622L9.73974 8.02944L9.81003 7.76402L9.86847 7.4802L9.91632 7.1784L9.95497 6.85927L9.98592 6.52365L10.0108 6.17265L10.0313 5.80763L10.0493 5.43023L10.0666 5.04241L10.0855 4.64641L10.1079 4.24481L10.136 3.84048L10.1722 3.43664L10.2185 3.03677L10.2772 2.64462L10.3505 2.26418L10.4404 1.89959L10.5488 1.55512L10.6775 1.23507L10.8279 0.943685L11.0012 0.685062L11.1982 0.46306L11.4195 0.281195L11.6652 0.142537L11.9349 0.0496268L12.2281 0.00439108L12.5436 0.00807851L12.8799 0.0612138L13.2352 0.163572L13.6074 0.314176L13.994 0.511318L14.3926 0.752599L14.8005 1.035L15.2148 1.35494L15.6327 1.70839L16.0517 2.09098L16.4691 2.49806L16.8824 2.92486L17.2895 3.36654L17.6885 3.8183L18.0774 4.27547L18.455 4.73355L18.8199 5.18828L19.1714 5.63569L19.5085 6.07208L19.831 6.49407L20.1386 6.89859L20.4313 7.28283L20.7091 7.64429L20.9725 7.98069L21.2217 8.28996L21.4574 8.57019L21.6802 8.8196L21.8907 9.03647L22.0898 9.2191L22.2782 9.36579L22.4568 9.4747L22.6266 9.54387L22.7885 9.57112L22.9435 9.55394L23.0925 9.4895L23.2368 9.37444L23.3775 9.20487L23.5157 8.97615L23.653 8.68279L23.7907 8.31826L23.9306 7.87473L24.0745 7.34283L24.2247 6.71125L24.3837 5.96635L24.5546 5.09154L24.7411 4.0666L24.9475 2.86672L25.1639 3.51686L25.3593 4.62196L25.5372 5.56572L25.7014 6.37042L25.8555 7.05428L26.0021 7.63226L26.1437 8.11674L26.2822 8.51795L26.4195 8.84442L26.5571 9.10328L26.6964 9.30049L26.8388 9.44106L26.9855 9.52924L27.1375 9.56862L27.2959 9.56227L27.4618 9.51284L27.6361 9.42266L27.8198 9.29378L28.0137 9.1281L28.2186 8.92738L28.4354 8.69331L28.6648 8.42759L28.9075 8.13196L29.1641 7.80828L29.435 7.45852L29.7205 7.08486L30.021 6.68971L30.3364 6.2757L30.6666 5.84579L31.0113 5.4032L31.3698 4.95149L31.7415 4.49449L32.1252 4.03634L32.5196 3.58142L32.923 3.13433L33.3336 2.69982L33.7494 2.28272L34.1679 1.88784L34.5867 1.5199L35.0031 1.18342L35.4143 0.882606L35.8177 0.621267L36.2104 0.402696L36.5898 0.229599L36.9535 0.104022L37.2991 0.0272937L37.6247 0L37.9287 0.0219726L38.2097 0.0923041L38.467 0.209385L38.6999 0.370958L38.9085 0.574196L39.0931 0.815784L39.2543 1.09202L39.3931 1.39889L39.511 1.73223L39.6096 2.08774L39.6906 2.46113L39.756 2.8482L39.808 3.24486L39.8487 3.64726L39.8804 4.05177L39.9052 4.45505L39.9255 4.85407L39.9433 5.2461L39.9608 5.62874L39.9798 5.9999L40.0024 6.35778L40.0302 6.70091L40.065 7.02804L40.1083 7.33821L40.1615 7.63068L40.226 7.90494L40.3029 8.16064L40.3935 8.39764L40.4986 8.61594L40.6192 8.8157L40.7562 8.9972L40.9101 9.16085L41.0816 9.30718L41.2711 9.4368L41.4791 9.55048L41.7056 9.64905L41.9509 9.73345L42.2149 9.80474L42.4972 9.86407L42.7976 9.91271L43.1154 9.95204L43.4498 9.98354L43.7996 10.0088L44.1636 10.0296L44.54 10.0477L44.9271 10.0651L45.3226 10.0837L45.7238 10.1058L46.128 10.1334L46.5321 10.1688L46.9324 10.2142L47.3253 10.2719L47.7068 10.3439L48.0728 10.4324L48.4191 10.5393L48.7412 10.6663L49.035 10.8149L49.2964 10.9863L49.5215 11.1815L49.7067 11.4008L49.8489 11.6445L49.9455 11.9124L49.9946 12.2037L49.9948 12.5175L49.9456 12.8522L49.8472 13.206L49.7003 13.577L49.5068 13.9626L49.2689 14.3603L48.9897 14.7675L48.6726 15.1814L48.3217 15.5992L47.9412 16.0181L47.5359 16.4357L47.1105 16.8495L46.6698 17.2572L46.2187 17.6568L45.7618 18.0466L45.3036 18.4251L44.8484 18.7911L44.4003 19.1436L43.9629 19.482L43.5396 19.8056L43.1336 20.1144L42.7477 20.4083L42.3843 20.6873L42.0458 20.9518L41.7343 21.2021L41.4517 21.4389L41.1998 21.6626L40.9803 21.8741L40.7948 22.074L40.6452 22.2633L40.5332 22.4427L40.4608 22.6131L40.4301 22.7756L40.4437 22.9311L40.5043 23.0806L40.6151 23.2252L40.7802 23.3661L41.004 23.5045L41.292 23.6418L41.6506 23.7794L42.0876 23.919L42.612 24.0626L43.2352 24.2122L43.9705 24.3704L44.8343 24.5402L45.8465 24.7252L47.0314 24.9299L47.4498 25.0001Z" fill="url(#paint0_linear_222_744)"/>
<defs>
<linearGradient id="paint0_linear_222_744" x1="4.69287" y1="-26.2362" x2="-44.526" y2="-35.04" gradientUnits="userSpaceOnUse">
<stop stop-color="#C17D4C"/>
<stop offset="0.0001" stop-color="#C17D4C"/>
</linearGradient>
</defs>
</svg>
